<svg t="1744437812168" class="icon" viewBox="0 0 1165 1024" version="1.1" xmlns="http://www.w3.org/2000/svg" p-id="2756" width="64" height="64"><path d="M1050.738572 703.66908h-18.796278v-111.189245c0-63.007239-51.094105-114.101344-114.36608-114.366081H613.394208v-158.312306h14.29576c63.007239 0 114.101344-51.094105 114.36608-114.366081V114.366081c0-63.007239-51.094105-114.101344-114.36608-114.366081h-91.069287c-63.007239 0-114.101344 51.094105-114.36608 114.366081v91.069286c0 63.007239 51.094105 114.101344 114.36608 114.366081h14.29576v158.312306H246.999171c-63.007239 0-114.101344 51.094105-114.36608 114.366081v111.189245h-18.266805c-63.007239 0-114.101344 51.094105-114.366081 114.36608v91.069287c0 63.007239 51.094105 114.101344 114.366081 114.36608h90.80455c63.007239 0 114.101344-51.094105 114.366081-114.101344v-91.069286c0-63.007239-51.094105-114.101344-114.366081-114.366081h-10.324715v-111.189245c0-28.59152 23.296794-51.888314 51.888314-51.888315h303.91727v163.342296h-14.29576c-63.007239 0-114.101344 51.094105-114.366081 114.366081v91.069286c0 63.007239 51.094105 114.101344 114.366081 114.366081h91.069286c63.007239 0 114.101344-51.094105 114.366081-114.101344v-91.069287c0-63.007239-51.094105-114.101344-114.366081-114.36608h-14.29576v-163.342296h303.91727c28.59152 0 51.888314 23.296794 51.888315 51.888314v111.189245h-9.530507c-63.007239 0-114.101344 51.094105-114.366081 114.366081v91.069286c0 63.007239 51.094105 114.101344 114.366081 114.366081h91.069286c63.007239 0 114.101344-51.094105 114.366081-114.101344v-91.069287c0-63.007239-51.094105-114.101344-114.366081-114.36608zM484.997103 205.435367V114.366081c0-28.59152 23.296794-51.888314 51.888314-51.888315h91.069287c28.59152 0 51.888314 23.296794 51.888314 51.888315v91.069286c0 28.59152-23.296794 51.888314-51.888314 51.888314H537.150154c-28.59152 0-51.888314-23.296794-51.888315-51.888314z m-227.673216 612.335057v91.069286c0 28.59152-23.296794 51.888314-51.888314 51.888315H114.366286c-28.59152 0-51.888314-23.296794-51.888314-51.888315v-91.069286c0-28.59152 23.296794-51.888314 51.888314-51.888314h91.069287c28.59152 0 51.888314 23.296794 51.888314 51.888314z m370.366081-51.888314c28.59152 0 51.888314 23.296794 51.888314 51.888314v91.069286c0 28.59152-23.296794 51.888314-51.888314 51.888315h-91.069287c-28.59152 0-51.888314-23.296794-51.888314-51.888315v-91.069286c0-28.59152 23.032058-51.888314 51.623578-51.888314h91.334023z m474.936918 142.9576c0 28.59152-23.296794 51.888314-51.888314 51.888315h-91.069287c-28.59152 0-51.888314-23.296794-51.888314-51.888315v-91.069286c0-28.59152 23.296794-51.888314 51.888314-51.888314h91.069287c28.59152 0 51.888314 23.296794 51.888314 51.888314v91.069286z" fill="currentColor" p-id="2757"></path></svg>