<svg t="1744437940428" class="icon" viewBox="0 0 1024 1024" version="1.1" xmlns="http://www.w3.org/2000/svg" p-id="3580" width="64" height="64"><path d="M920.889 938.667V814.222c0-19.626-16.285-35.555-36.338-35.555H775.467c-20.054 0-36.338 15.929-36.338 35.555v35.556H575.573a35.947 35.947 0 0 1-36.337-35.556V529.778h199.893v35.555c0 19.627 16.284 35.556 36.338 35.556h109.049c20.053 0 36.337-15.929 36.337-35.556V440.89c0-19.627-16.284-35.556-36.337-35.556h-109.05c-20.053 0-36.337 15.93-36.337 35.556v35.555H539.236V209.778c0-19.627 16.248-35.556 36.337-35.556H739.13v35.556c0 19.626 16.284 35.555 36.338 35.555h109.049c20.053 0 36.337-15.929 36.337-35.555V85.333c0-19.626-16.284-35.555-36.337-35.555h-109.05c-20.053 0-36.337 15.929-36.337 35.555v35.556H557.404c-40.177 0-72.71 31.822-72.71 71.111v284.444H284.835V440.89c0-19.627-16.285-35.556-36.338-35.556h-109.05c-20.052 0-36.337 15.93-36.337 35.556v124.444c0 19.627 16.285 35.556 36.338 35.556h109.084c20.054 0 36.338-15.929 36.338-35.556v-35.555h199.893V832c0 39.289 32.57 71.111 72.712 71.111h181.688v35.556c0 19.626 16.32 35.555 36.374 35.555h109.049c20.053 0 36.337-15.929 36.337-35.555z" p-id="3581" fill="currentColor"></path></svg>